<svg width="321" height="312" viewBox="0 0 321 312" fill="none" xmlns="http://www.w3.org/2000/svg">
<path d="M158.956 310.578C16.9771 310.578 -6.34741 209.423 2.714 160.426L318.931 160.426C322.426 209.423 300.936 310.578 158.956 310.578Z" fill="#FD6841" stroke="black" stroke-width="2"/>
<ellipse cx="160.891" cy="160.031" rx="158.995" ry="70.7296" fill="black"/>
<path d="M159.484 54.529C159.484 84.3784 135.797 108.558 106.599 108.558C77.4012 108.558 53.7139 84.3784 53.7139 54.529C53.7139 24.6796 77.4012 0.5 106.599 0.5C135.797 0.5 159.484 24.6796 159.484 54.529Z" fill="#47CC57" stroke="black"/>
<path d="M266.254 54.529C266.254 84.3784 242.567 108.558 213.369 108.558C184.171 108.558 160.484 84.3784 160.484 54.529C160.484 24.6796 184.171 0.5 213.369 0.5C242.567 0.5 266.254 24.6796 266.254 54.529Z" fill="#47CC57" stroke="black"/>
<ellipse cx="212.982" cy="54.1338" rx="32.8821" ry="33.5867" fill="#FFED38"/>
<ellipse cx="214.142" cy="163.587" rx="53.385" ry="54.529" fill="#47CC57"/>
<ellipse cx="106.599" cy="163.587" rx="53.385" ry="54.529" fill="#47CC57"/>
</svg>
