<svg width="323" height="368" viewBox="0 0 323 368" fill="none" xmlns="http://www.w3.org/2000/svg">
<path d="M144.305 54.1044C166.259 71.6632 179.041 98.2511 179.041 126.364L179.041 241.149C179.041 274.389 161.456 305.15 132.813 322.016L126.767 325.576C97.488 342.817 60.678 340.58 33.7022 319.919C13.0883 304.132 0.999759 279.647 0.99976 253.681L0.999751 115.971C0.999752 94.0505 9.48477 72.9808 24.6764 57.178C55.0749 25.5567 104.566 22.3226 138.821 49.7189L144.305 54.1044Z" fill="#19C1E5" stroke="black" stroke-width="2"/>
<path d="M143.256 67.6018C163.006 83.3856 174.506 107.296 174.506 132.579L174.506 234.467C174.506 264.354 158.69 292.01 132.931 307.166L127.554 310.33C101.217 325.826 68.1148 323.815 43.8473 305.243C25.2831 291.036 14.3951 268.994 14.3951 245.617L14.3951 123.332C14.3951 103.598 22.0374 84.6318 35.7188 70.4112C63.0653 41.9869 107.564 39.0792 138.377 63.7032L143.256 67.6018Z" fill="#1E1E1E"/>
<path d="M155.373 313.341C133.418 295.782 120.637 269.194 120.637 241.082L120.637 126.297C120.637 93.0563 138.221 62.2957 166.865 45.4291L172.91 41.8693C202.19 24.6283 239 26.8657 265.976 47.5259C286.589 63.3137 298.678 87.7988 298.678 113.764L298.678 251.474C298.678 273.395 290.193 294.465 275.001 310.267C244.603 341.889 195.112 345.123 160.856 317.726L155.373 313.341Z" fill="#19C1E5" stroke="black" stroke-width="2"/>
<path d="M112.243 210.29L32.4563 178.014L112.243 145.738C112.831 145.5 113.215 144.93 113.215 144.295C113.215 143.191 112.098 142.439 111.075 142.853L28.8996 176.161C27.2347 176.835 27.2347 179.193 28.8996 179.868L111.075 213.175C112.098 213.59 113.215 212.837 113.215 211.733C113.215 211.099 112.831 210.528 112.243 210.29Z" fill="#FFEC52" stroke="#FFED38" stroke-width="2"/>
<path d="M235.872 142.957C235.872 142.957 235.872 142.958 235.873 142.958L235.872 142.957ZM235.872 142.957L235.871 142.957L235.538 143.78L235.871 142.957C235.871 142.957 235.871 142.957 235.872 142.957ZM234.371 146.665L311.866 178.014L234.371 209.363C233.405 209.754 232.773 210.691 232.773 211.733C232.773 213.546 234.609 214.783 236.29 214.102L318.465 180.794C320.962 179.782 320.962 176.246 318.465 175.234L317.714 177.087L318.465 175.234L236.29 141.927C234.609 141.245 232.773 142.482 232.773 144.295C232.773 145.337 233.405 146.274 234.371 146.665Z" fill="#FFEC52" stroke="#FFED38" stroke-width="4"/>
<path d="M220.561 121.882C217.413 131.147 214.265 140.457 211.116 149.812C207.968 159.166 204.775 168.521 201.537 177.876C198.389 187.141 195.24 196.451 192.092 205.805C188.944 215.07 185.796 224.38 182.647 233.735H127.733C130.881 224.38 134.029 215.07 137.178 205.805C140.326 196.451 143.474 187.141 146.622 177.876C149.861 168.521 153.054 159.166 156.202 149.812C159.35 140.457 162.499 131.147 165.647 121.882H220.561Z" fill="#FFEC52"/>
</svg>
