<svg width="23" height="22" viewBox="0 0 23 22" fill="none" xmlns="http://www.w3.org/2000/svg">
<path d="M9.04614 0.699951L9.16333 1.03589L12.217 9.80249L15.2502 1.03687L15.3674 0.699951H21.5754V1.84351H21.0754C20.5596 1.84351 20.135 2.26808 20.135 2.78394V16.4158C20.135 16.9316 20.5596 17.3562 21.0754 17.3562H21.5754V18.4998H13.4475V17.3562H13.9475C14.4926 17.356 14.9114 16.9261 14.9114 16.4158V5.48511L10.5071 18.1638L10.0344 19.5271L9.56274 18.1638L5.23071 5.63647V14.9763C5.23091 16.2766 6.27187 17.3562 7.53931 17.3562H8.03931V18.4998H1.25513V17.3562H1.75513C3.02803 17.3562 4.08696 16.271 4.08716 14.9763V2.78394C4.08715 2.26808 3.66258 1.84351 3.14673 1.84351H2.57544V0.699951H9.04614Z" stroke="black"/>
</svg>
