<svg width="320" height="320" viewBox="0 0 320 320" fill="none" xmlns="http://www.w3.org/2000/svg">
<circle cx="160" cy="160" r="159" fill="#FF94F2" stroke="black" stroke-width="2"/>
<ellipse cx="160" cy="160" rx="160" ry="81.0959" fill="#F56E42"/>
<path d="M199.764 189.816L199.76 189.821C197.317 192.962 195.926 196.968 195.926 201.312C195.926 211.587 204.284 219.945 214.558 219.945C224.833 219.945 233.19 211.587 233.19 201.312C233.19 191.038 224.833 182.68 214.558 182.68C208.466 182.68 203.242 185.468 199.764 189.816ZM223.513 175.333L223.164 175.054L222.847 175.37C222.063 176.154 220.997 176.749 219.812 176.749C217.376 176.749 215.397 174.77 215.397 172.335C215.397 171.227 215.999 170.196 217.202 169.172C218.408 168.145 220.156 167.178 222.306 166.205C224.45 165.234 226.956 164.272 229.659 163.243C229.8 163.19 229.941 163.136 230.082 163.082C232.659 162.101 235.398 161.059 238.139 159.895C249.652 155.006 261.49 147.859 261.49 133.698C261.49 115.193 242.857 100.323 219.981 100.323C210.225 100.323 200.511 103.359 193.224 108.245C185.948 113.125 181.014 119.91 181.014 127.428C181.014 137.702 189.372 146.06 199.646 146.06C209.92 146.06 218.278 137.702 218.278 127.428C218.278 119.937 213.751 113.5 207.49 110.541C205.399 109.493 204.625 108.148 204.572 107.027C204.52 105.904 205.179 104.86 206.268 104.34C209.419 103.347 212.728 102.685 216.197 102.512C224.619 104.867 234.152 114.623 230.848 128.498L230.848 128.502C228.705 137.813 221.575 143.459 214.772 148.847L214.629 148.96C211.228 151.653 207.91 154.297 205.45 157.299C202.977 160.315 201.349 163.717 201.349 167.929C201.349 175.148 207.161 181.138 214.558 181.138C218.44 181.138 221.958 179.374 224.414 176.743L224.782 176.348L224.36 176.011L223.513 175.333Z" fill="#FFED38" stroke="#FFEC52"/>
<path d="M169.59 201.392L67.5973 160.133L169.59 118.873C170.235 118.613 170.657 117.987 170.657 117.291C170.657 116.081 169.431 115.255 168.309 115.71L63.2829 158.279C61.618 158.954 61.618 161.311 63.2829 161.986L168.309 204.556C169.431 205.01 170.657 204.185 170.657 202.974C170.657 202.279 170.235 201.653 169.59 201.392Z" fill="#FFED38" stroke="#FFEC52" stroke-width="2"/>
</svg>
