<svg width="334" height="368" viewBox="0 0 334 368" fill="none" xmlns="http://www.w3.org/2000/svg">
<path d="M179.041 126.363L179.041 241.148C179.041 273.87 162.001 304.188 134.147 321.216L132.813 322.017L126.767 325.576C97.7165 342.682 61.2527 340.613 34.3364 320.4L33.7026 319.919C13.0888 304.131 0.99958 279.647 0.999501 253.682L0.999507 115.971L1.00634 114.944C1.26278 93.7356 9.45583 73.3902 23.9692 57.9228L24.6763 57.1777C54.8373 25.8035 103.794 22.3744 138.016 49.082L138.822 49.7187L144.305 54.1045C166.26 71.6632 179.04 98.2509 179.041 126.363Z" fill="#19C1E5" stroke="black" stroke-width="2"/>
<path d="M143.256 67.6018C163.006 83.3856 174.506 107.296 174.506 132.579L174.506 234.467C174.506 264.354 158.69 292.01 132.931 307.166L127.554 310.33C101.217 325.826 68.1148 323.815 43.8473 305.243C25.2831 291.036 14.3951 268.994 14.3951 245.617L14.3951 123.332C14.3951 103.598 22.0374 84.6318 35.7188 70.4112C63.0653 41.9869 107.564 39.0792 138.377 63.7032L143.256 67.6018Z" fill="#1E1E1E"/>
<path d="M120.637 241.082L120.637 126.297C120.637 93.5755 137.676 63.2572 165.531 46.2295L166.865 45.4287L172.911 41.8691C201.961 24.763 238.425 26.832 265.341 47.0449L265.975 47.5264C286.589 63.3141 298.678 87.7986 298.678 113.764L298.678 251.475L298.671 252.501C298.415 273.71 290.222 294.055 275.708 309.522L275.001 310.268C244.84 341.642 195.883 345.071 161.662 318.363L160.856 317.727L155.373 313.341C133.418 295.782 120.637 269.194 120.637 241.082Z" fill="#19C1E5" stroke="black" stroke-width="2"/>
<path d="M167.187 200.857C177.461 200.858 185.819 209.215 185.819 219.489C185.819 229.763 177.461 238.122 167.187 238.122C156.913 238.122 148.554 229.764 148.554 219.489C148.554 215.146 149.945 211.139 152.388 207.998L152.392 207.993L152.723 207.59C156.198 203.473 161.285 200.857 167.187 200.857ZM172.61 118.5C195.485 118.5 214.119 133.37 214.119 151.875C214.119 166.036 202.28 173.183 190.767 178.072C187.876 179.3 184.986 180.393 182.288 181.42C179.584 182.449 177.078 183.412 174.934 184.383C172.785 185.356 171.036 186.322 169.831 187.349C168.628 188.373 168.026 189.404 168.026 190.512C168.026 192.947 170.005 194.927 172.44 194.927C173.625 194.927 174.692 194.332 175.476 193.548L175.792 193.231L176.141 193.511L176.989 194.188L177.411 194.525L177.042 194.92C174.586 197.551 171.069 199.315 167.187 199.315C159.789 199.315 153.977 193.326 153.977 186.106C153.977 181.894 155.606 178.492 158.079 175.476C160.539 172.474 163.856 169.83 167.257 167.137C174.103 161.715 181.319 156.056 183.476 146.68L183.477 146.676L183.623 146.026C186.482 132.496 177.115 123.007 168.825 120.689C165.356 120.862 162.047 121.524 158.897 122.517C157.808 123.037 157.148 124.081 157.201 125.204C157.253 126.325 158.028 127.672 160.122 128.72C166.381 131.679 170.907 138.116 170.907 145.605C170.907 155.88 162.548 164.237 152.274 164.237C142 164.237 133.642 155.879 133.642 145.605C133.642 138.088 138.576 131.302 145.853 126.422C153.139 121.536 162.854 118.5 172.61 118.5Z" fill="#FFED38" stroke="#FFEC52"/>
<path d="M121.148 133.816C122.208 133.537 123.285 134.334 123.285 135.469C123.285 136.121 122.914 136.712 122.336 136.998L122.218 137.051L20.2256 178.31L122.218 219.569L122.336 219.622C122.914 219.908 123.285 220.499 123.285 221.151C123.285 222.286 122.207 223.083 121.148 222.804L120.938 222.732L15.9111 180.163C14.2462 179.488 14.2462 177.131 15.9111 176.456L120.938 133.887L121.148 133.816Z" fill="#FFED38" stroke="#FFEC52" stroke-width="2"/>
<path d="M226.136 222.803C225.077 223.083 224 222.286 224 221.151C224 220.499 224.371 219.908 224.949 219.622L225.067 219.569L327.059 178.31L225.067 137.051L224.949 136.998C224.371 136.712 224 136.121 224 135.468C224 134.334 225.077 133.537 226.136 133.816L226.347 133.887L331.374 176.457C333.039 177.132 333.039 179.489 331.374 180.164L226.347 222.733L226.136 222.803Z" fill="#FFED38" stroke="#FFEC52" stroke-width="2"/>
</svg>
