<svg width="321" height="315" viewBox="0 0 321 315" fill="none" xmlns="http://www.w3.org/2000/svg">
<rect x="1.28174" y="4.88037" width="318" height="308.971" rx="154.485" fill="#FFED38" stroke="black" stroke-width="2"/>
<path d="M178.877 50.9331C178.877 22.7477 210.499 0.0529785 248.738 0.0529785V2.24924C241.017 2.24924 234.398 7.00782 234.398 12.8645V13.9627V107.67C234.398 132.195 210.499 152.693 178.877 157.452C210.499 162.211 234.398 182.709 234.398 207.234L234.398 301.308V302.406C234.398 307.896 241.017 312.655 248.738 312.655V314.851C210.499 314.851 178.877 292.156 178.877 263.971L178.877 169.165C178.877 163.309 172.626 158.55 164.537 158.55V156.354C172.626 156.354 178.877 151.595 178.877 146.105L178.877 50.9331Z" fill="#FF94F2"/>
<path d="M108.615 172.399C98.1195 172.399 90.0229 164.383 90.0229 153.992C90.0229 143.601 98.1195 135.288 108.615 135.288C119.11 135.288 127.507 143.601 127.507 153.992C127.507 164.383 119.11 172.399 108.615 172.399ZM108.615 255.527C98.1195 255.527 90.0229 247.511 90.0229 237.12C90.0229 226.729 98.1195 218.416 108.615 218.416C119.11 218.416 127.507 226.729 127.507 237.12C127.507 247.511 119.11 255.527 108.615 255.527Z" fill="#F56E42"/>
</svg>
