<svg aria-label="" role="img" width="16" height="19" viewBox="0 0 16 19" fill="none" xmlns="http://www.w3.org/2000/svg">
<path d="M13.6511 0.699951V6.23608H12.5935L12.5164 5.82983C12.342 4.91458 11.8513 3.90912 11.1228 3.1394C10.3979 2.37357 9.46579 1.86792 8.39917 1.86792C7.85801 1.86794 7.39056 1.99637 7.0603 2.23901C6.74639 2.46968 6.51334 2.83379 6.47437 3.41675V3.4187C6.42272 4.15119 6.77162 4.83122 7.45776 5.54663C8.14837 6.26658 9.10645 6.94745 10.1423 7.69019C11.1587 8.41893 12.2429 9.20283 13.0945 10.0964C13.8967 10.9383 14.5293 11.9151 14.7009 13.0857L14.7292 13.323V13.3269L14.7419 13.6091C14.7506 15.0114 13.9456 16.2165 12.7683 17.0623C11.5126 17.9643 9.78736 18.4997 7.96753 18.4998C6.19273 18.4998 4.53412 18.029 3.30444 17.2244C2.07723 16.4213 1.22747 15.2457 1.22729 13.8484C1.22729 12.1562 2.60351 10.78 4.29565 10.78C5.98763 10.7802 7.36304 12.1564 7.36304 13.8484C7.3629 14.9309 6.87072 15.5636 6.45874 16.0085C6.2401 16.2447 6.10721 16.3698 6.00952 16.5115C5.93496 16.6197 5.92835 16.6736 5.93823 16.7302C5.95631 16.8122 6.0381 16.9629 6.36694 17.1062C6.70101 17.2518 7.22583 17.3562 7.96753 17.3562C8.96579 17.3561 9.89136 16.5478 9.89136 15.5759C9.89135 14.8768 9.47259 14.175 8.68726 13.4031C7.90684 12.636 6.86112 11.8899 5.76245 11.0789C4.68311 10.2821 3.5591 9.42748 2.70776 8.47437C1.85337 7.51781 1.22733 6.41166 1.22729 5.11206C1.22729 3.42231 2.27192 2.30226 3.57397 1.63159C4.86501 0.966707 6.47396 0.69999 7.823 0.699951C8.62791 0.699951 9.2935 0.788601 9.90698 0.872803C10.5244 0.957552 11.0794 1.03589 11.7117 1.03589C12.2223 1.03585 12.5177 0.959086 12.6843 0.818115L12.824 0.699951H13.6511Z" stroke="black"/>
</svg>
